<svg id="Celibrity_Request" data-name="Celibrity Request" xmlns="http://www.w3.org/2000/svg" width="58" height="58" viewBox="0 0 58 58">
  <g id="Group_54319" data-name="Group 54319" transform="translate(-299.254 -295.254)">
    <circle id="Ellipse_368" data-name="Ellipse 368" cx="28.5" cy="28.5" r="28.5" transform="translate(299.254 295.254)" fill="#fff"/>
    <path id="Polygon_124" data-name="Polygon 124" d="M34.395,6.39A4,4,0,0,1,41.173,9.2l.063,3.636a4,4,0,0,0,3.93,3.93l3.636.063a4,4,0,0,1,2.808,6.778l-2.526,2.616a4,4,0,0,0,0,5.557l2.526,2.616A4,4,0,0,1,48.8,41.173l-3.636.063a4,4,0,0,0-3.93,3.93L41.173,48.8a4,4,0,0,1-6.778,2.808l-2.616-2.526a4,4,0,0,0-5.557,0L23.605,51.61A4,4,0,0,1,16.827,48.8l-.063-3.636a4,4,0,0,0-3.93-3.93L9.2,41.173A4,4,0,0,1,6.39,34.395l2.526-2.616a4,4,0,0,0,0-5.557L6.39,23.605A4,4,0,0,1,9.2,16.827l3.636-.063a4,4,0,0,0,3.93-3.93L16.827,9.2A4,4,0,0,1,23.605,6.39l2.616,2.526a4,4,0,0,0,5.557,0Z" transform="translate(299.254 295.254)" fill="#05b7fd"/>
  </g>
  <path id="Icon_akar-check" data-name="Icon akar-check" d="M6,17.917l8.917,8.917L29.778,9" transform="translate(11.111 11.219)" fill="none" stroke="#fff" stroke-linecap="round" stroke-linejoin="round" stroke-width="4"/>
</svg>
