<svg xmlns="http://www.w3.org/2000/svg" width="17" height="11" viewBox="0 0 17 11">
  <g id="Polygon_125" data-name="Polygon 125" transform="translate(17 11) rotate(180)" fill="#9fa4a6">
    <path d="M 14.96350955963135 10.50000286102295 L 2.036489963531494 10.50000286102295 C 1.841439962387085 10.50000286102295 1.673660039901733 10.39547348022461 1.587689995765686 10.22038269042969 C 1.501710057258606 10.04530334472656 1.521589994430542 9.848623275756836 1.640849947929382 9.694272994995117 L 8.104350090026855 1.32973313331604 C 8.199760437011719 1.206273078918457 8.34397029876709 1.135463118553162 8.5 1.135463118553162 C 8.65602970123291 1.135463118553162 8.800230026245117 1.206273078918457 8.8956298828125 1.32973313331604 L 15.35914993286133 9.694272994995117 C 15.47840976715088 9.848623275756836 15.49829006195068 10.04530334472656 15.41230964660645 10.22038269042969 C 15.32633972167969 10.39547348022461 15.15855979919434 10.50000286102295 14.96350955963135 10.50000286102295 Z" stroke="none"/>
    <path d="M 8.5 1.635462760925293 L 2.036500930786133 10.00000190734863 C 2.036500930786133 10.00000190734863 2.036500930786133 10.00000286102295 2.036490440368652 10.00000286102295 L 14.96349906921387 10.00000286102295 C 14.96350002288818 10 14.96350193023682 9.999997138977051 14.96351051330566 10.00000286102295 L 8.502059936523438 1.635673522949219 C 8.501859664916992 1.635613441467285 8.501090049743652 1.635462760925293 8.5 1.635462760925293 M 8.499999046325684 0.6354608535766602 C 8.795559883117676 0.6354608535766602 9.091119766235352 0.7649784088134766 9.291279792785645 1.024013519287109 L 15.75479030609131 9.388553619384766 C 16.26271057128906 10.04586315155029 15.79419040679932 11.00000286102295 14.96351051330566 11.00000286102295 L 2.036490440368652 11.00000286102295 C 1.205809593200684 11.00000286102295 0.7372894287109375 10.04586315155029 1.245209693908691 9.388553619384766 L 7.708709716796875 1.024013519287109 C 7.908875465393066 0.7649784088134766 8.204437255859375 0.6354608535766602 8.499999046325684 0.6354608535766602 Z" stroke="none" fill="#9fa4a6"/>
  </g>
</svg>
