<svg id="Reports" xmlns="http://www.w3.org/2000/svg" width="57" height="57" viewBox="0 0 57 57">
  <g id="Group_54321" data-name="Group 54321" transform="translate(-733 -272)">
    <path id="Path_76924" data-name="Path 76924" d="M28.5,0A28.5,28.5,0,1,1,0,28.5,28.5,28.5,0,0,1,28.5,0Z" transform="translate(733 272)" fill="#05a5c3"/>
  </g>
  <g id="Group_54323" data-name="Group 54323" transform="translate(-1297.436 -369.426)">
    <path id="Icon_ion-waterdrop" data-name="Icon ion-waterdrop" d="M11.884,2.773c-.009-.032-.021-.056-.026-.079l0-.008c-.106-.27-.249-.436-.407-.436s-.3.167-.407.436l0,.008c-.009.024-.018.048-.026.079-.179.5-.4,1.142-.657,1.911-.51,1.562-1.131,3.648-1.715,6.09A65.517,65.517,0,0,0,6.76,25.295c0,.1,0,.214,0,.317a30.061,30.061,0,0,0,.319,4.425q.18,1.189.446,2.236c.835,3.315,2.28,5.5,3.922,5.5,2.591,0,4.69-5.448,4.69-12.165a71.652,71.652,0,0,0-4.25-22.838Zm-.44,30.562a1.7,1.7,0,0,1-1.287-.8c1.932-1.142,3.47-5.131,3.981-10.269a20.157,20.157,0,0,1,.24,3.14C14.375,29.783,13.062,33.336,11.444,33.336Z" transform="translate(1337.38 412.691) rotate(180)" fill="#fff"/>
    <g id="Ellipse_369" data-name="Ellipse 369" transform="translate(1321.247 412.441)" fill="#fff" stroke="#fff" stroke-width="1">
      <ellipse cx="4.683" cy="4.961" rx="4.683" ry="4.961" stroke="none"/>
      <ellipse cx="4.683" cy="4.961" rx="4.183" ry="4.461" fill="none"/>
    </g>
  </g>
</svg>
