<svg id="Sponserd_event" data-name="Sponserd event" xmlns="http://www.w3.org/2000/svg" width="57" height="57" viewBox="0 0 57 57">
  <path id="Path_76924" data-name="Path 76924" d="M28.5,0A28.5,28.5,0,1,1,0,28.5,28.5,28.5,0,0,1,28.5,0Z" fill="#05a5c3"/>
  <g id="Group_54219" data-name="Group 54219" transform="translate(4985.41 21605.125)">
    <g id="U-meet_Selected" data-name="U-meet Selected" transform="translate(-4973.281 -21592.266)">
      <g id="Group_53335" data-name="Group 53335" transform="translate(0 0)">
        <g id="Path_76923" data-name="Path 76923" transform="translate(0 1.813)" fill="#f4f6fc">
          <path d="M 30.74034118652344 28.96630477905273 L 2.000000476837158 28.96630477905273 C 1.172900557518005 28.96630477905273 0.5000005960464478 28.29340362548828 0.5000005960464478 27.46630477905273 L 0.5000005960464478 2.000004291534424 C 0.5000005960464478 1.172904253005981 1.172900557518005 0.5000042915344238 2.000000476837158 0.5000042915344238 L 30.74034118652344 0.5000042915344238 C 31.56744003295898 0.5000042915344238 32.24034118652344 1.172904253005981 32.24034118652344 2.000004291534424 L 32.24034118652344 27.46630477905273 C 32.24034118652344 28.29340362548828 31.56744003295898 28.96630477905273 30.74034118652344 28.96630477905273 Z" stroke="none"/>
          <path d="M 2 1.000003814697266 C 1.448600769042969 1.000003814697266 1 1.448604583740234 1 2.000003814697266 L 1 27.46630477905273 C 1 28.01770401000977 1.448600769042969 28.46630477905273 2 28.46630477905273 L 30.74034118652344 28.46630477905273 C 31.29174041748047 28.46630477905273 31.74034118652344 28.01770401000977 31.74034118652344 27.46630477905273 L 31.74034118652344 2.000003814697266 C 31.74034118652344 1.448604583740234 31.29174041748047 1.000003814697266 30.74034118652344 1.000003814697266 L 2 1.000003814697266 M 2 3.814697265625e-06 L 30.74034118652344 3.814697265625e-06 C 31.84490966796875 3.814697265625e-06 32.74034118652344 0.8954238891601562 32.74034118652344 2.000003814697266 L 32.74034118652344 27.46630477905273 C 32.74034118652344 28.57087516784668 31.84490966796875 29.46630477905273 30.74034118652344 29.46630477905273 L 2 29.46630477905273 C 0.8954315185546875 29.46630477905273 0 28.57087516784668 0 27.46630477905273 L 0 2.000003814697266 C 0 0.8954238891601562 0.8954315185546875 3.814697265625e-06 2 3.814697265625e-06 Z" stroke="none" fill="#fff"/>
        </g>
        <g id="Path_76925" data-name="Path 76925" transform="translate(0 1.813)" fill="#b2d6e4">
          <path d="M 32.24034118652344 4.956721782684326 L 0.5000005960464478 4.956721782684326 L 0.5000005960464478 2.000001668930054 C 0.5000005960464478 1.172901630401611 1.172900557518005 0.5000016093254089 2.000000476837158 0.5000016093254089 L 30.74034118652344 0.5000016093254089 C 31.56744003295898 0.5000016093254089 32.24034118652344 1.172901630401611 32.24034118652344 2.000001668930054 L 32.24034118652344 4.956721782684326 Z" stroke="none"/>
          <path d="M 2 1.000001430511475 C 1.448600769042969 1.000001430511475 1 1.448601722717285 1 2.000001668930054 L 1 4.456721782684326 L 31.74034118652344 4.456721782684326 L 31.74034118652344 2.000001668930054 C 31.74034118652344 1.448601722717285 31.29174041748047 1.000001430511475 30.74034118652344 1.000001430511475 L 2 1.000001430511475 M 2 1.430511474609375e-06 L 30.74034118652344 1.430511474609375e-06 C 31.84490966796875 1.430511474609375e-06 32.74034118652344 0.8954315185546875 32.74034118652344 2.000001668930054 L 32.74034118652344 5.456721782684326 L 0 5.456721782684326 L 0 2.000001668930054 C 0 0.8954315185546875 0.8954315185546875 1.430511474609375e-06 2 1.430511474609375e-06 Z" stroke="none" fill="#b2d6e4"/>
        </g>
        <rect id="Rectangle_19438" data-name="Rectangle 19438" width="1.353" height="4.059" rx="0.676" transform="translate(7.434 0)" fill="#78c0db"/>
        <rect id="Rectangle_19439" data-name="Rectangle 19439" width="1.353" height="4.059" rx="0.676" transform="translate(22.502 0)" fill="#78c0db"/>
        <g id="Group_53259" data-name="Group 53259" transform="translate(2.638 11.499)">
          <g id="Rectangle_19441" data-name="Rectangle 19441" transform="translate(5.808)" fill="#05a5c3" stroke="#05a5c3" stroke-width="1">
            <rect width="3.872" height="3.872" rx="0.4" stroke="none"/>
            <rect x="0.5" y="0.5" width="2.872" height="2.872" rx="0.1" fill="none"/>
          </g>
          <g id="Rectangle_19442" data-name="Rectangle 19442" transform="translate(11.615)" fill="#05a5c3" stroke="#05a5c3" stroke-width="1">
            <rect width="3.872" height="3.872" rx="0.4" stroke="none"/>
            <rect x="0.5" y="0.5" width="2.872" height="2.872" rx="0.1" fill="none"/>
          </g>
          <g id="Rectangle_19443" data-name="Rectangle 19443" transform="translate(17.423)" fill="#05a5c3" stroke="#05a5c3" stroke-width="1">
            <rect width="3.872" height="3.872" rx="0.4" stroke="none"/>
            <rect x="0.5" y="0.5" width="2.872" height="2.872" rx="0.1" fill="none"/>
          </g>
          <g id="Rectangle_19444" data-name="Rectangle 19444" transform="translate(23.23)" fill="#05a5c3" stroke="#05a5c3" stroke-width="1">
            <rect width="3.872" height="3.872" rx="0.4" stroke="none"/>
            <rect x="0.5" y="0.5" width="2.872" height="2.872" rx="0.1" fill="none"/>
          </g>
          <g id="Rectangle_19445" data-name="Rectangle 19445" transform="translate(5.808 5.808)" fill="#05a5c3" stroke="#05a5c3" stroke-width="1">
            <rect width="3.872" height="3.872" rx="0.4" stroke="none"/>
            <rect x="0.5" y="0.5" width="2.872" height="2.872" rx="0.1" fill="none"/>
          </g>
          <g id="Rectangle_19446" data-name="Rectangle 19446" transform="translate(11.615 5.808)" fill="#05a5c3" stroke="#05a5c3" stroke-width="1">
            <rect width="3.872" height="3.872" rx="0.4" stroke="none"/>
            <rect x="0.5" y="0.5" width="2.872" height="2.872" rx="0.1" fill="none"/>
          </g>
          <g id="Rectangle_19447" data-name="Rectangle 19447" transform="translate(17.423 5.808)" fill="#05a5c3" stroke="#05a5c3" stroke-width="1">
            <rect width="3.872" height="3.872" rx="0.4" stroke="none"/>
            <rect x="0.5" y="0.5" width="2.872" height="2.872" rx="0.1" fill="none"/>
          </g>
          <g id="Rectangle_19448" data-name="Rectangle 19448" transform="translate(23.23 5.808)" fill="#05a5c3" stroke="#05a5c3" stroke-width="1">
            <rect width="3.872" height="3.872" rx="0.4" stroke="none"/>
            <rect x="0.5" y="0.5" width="2.872" height="2.872" rx="0.1" fill="none"/>
          </g>
          <g id="Rectangle_19449" data-name="Rectangle 19449" transform="translate(0 5.808)" fill="#05a5c3" stroke="#05a5c3" stroke-width="1">
            <rect width="3.872" height="3.872" rx="0.4" stroke="none"/>
            <rect x="0.5" y="0.5" width="2.872" height="2.872" rx="0.1" fill="none"/>
          </g>
          <g id="Rectangle_19450" data-name="Rectangle 19450" transform="translate(5.808 11.615)" fill="#05a5c3" stroke="#05a5c3" stroke-width="1">
            <rect width="3.872" height="3.872" rx="0.4" stroke="none"/>
            <rect x="0.5" y="0.5" width="2.872" height="2.872" rx="0.1" fill="none"/>
          </g>
          <g id="Rectangle_19451" data-name="Rectangle 19451" transform="translate(11.615 11.615)" fill="#05a5c3" stroke="#05a5c3" stroke-width="1">
            <rect width="3.872" height="3.872" rx="0.4" stroke="none"/>
            <rect x="0.5" y="0.5" width="2.872" height="2.872" rx="0.1" fill="none"/>
          </g>
          <g id="Rectangle_19452" data-name="Rectangle 19452" transform="translate(17.423 11.615)" fill="#05a5c3" stroke="#05a5c3" stroke-width="1">
            <rect width="3.872" height="3.872" rx="0.4" stroke="none"/>
            <rect x="0.5" y="0.5" width="2.872" height="2.872" rx="0.1" fill="none"/>
          </g>
          <g id="Rectangle_19454" data-name="Rectangle 19454" transform="translate(0 11.615)" fill="#05a5c3" stroke="#05a5c3" stroke-width="1">
            <rect width="3.872" height="3.872" rx="0.4" stroke="none"/>
            <rect x="0.5" y="0.5" width="2.872" height="2.872" rx="0.1" fill="none"/>
          </g>
        </g>
      </g>
    </g>
  </g>
</svg>
