<svg id="Upload_Imagge" data-name="Upload Imagge" xmlns="http://www.w3.org/2000/svg" width="107.765" height="77.498" viewBox="0 0 107.765 77.498">
  <path id="Path_21739" data-name="Path 21739" d="M942.876,337.8c-2.837-9.818-1.829-18.712,3.629-26.68a23.293,23.293,0,0,1,13.458-9.6c9.9-2.708,24.621,2.577,28.944,20.445.49-.411.925-.761,1.346-1.131a10.7,10.7,0,0,1,14.109-.448c4.435,3.361,6.344,8.83,4.95,14.693-.379,1.6.1,1.926,1.285,2.154,11.051,2.14,17.655,13.637,14.894,25.877-1.8,7.984-8.506,14.617-15.836,14.953-7.792.357-15.6.145-23.407.192-3.7.022-7.395.106-11.092.095-11.35-.033-22.7-.053-34.049-.181a41.946,41.946,0,0,1-9.167-.742c-6.954-1.645-12.228-8.506-13.378-16.783-1.1-7.931,2.251-16.22,8.224-20.4a16.531,16.531,0,0,1,14.645-2.615A11.21,11.21,0,0,0,942.876,337.8Z" transform="translate(-918.355 -300.856)" fill="#cacaca"/>
  <path id="Union_3" data-name="Union 3" d="M6.407,28.138v-14.6H16.4v14.6ZM0,13.542,11.276,0,22.552,13.542Z" transform="translate(42.497 28.619)" fill="#fff"/>
</svg>
